<svg width="20" height="20" viewBox="0 0 20 20" fill="none" xmlns="http://www.w3.org/2000/svg">
<g clip-path="url(#clip0_521_1931)">
<path d="M3.17496 5.23331C2.22496 6.58331 1.66663 8.22497 1.66663 9.99997C1.66663 11.775 2.22496 13.4166 3.17496 14.7666C5.19163 14.125 6.66663 12.2333 6.66663 9.99997C6.66663 7.76664 5.19163 5.87497 3.17496 5.23331Z" fill="#323232" fill-opacity="0.5"/>
<path d="M16.8249 5.23331C14.8083 5.87497 13.3333 7.76664 13.3333 9.99997C13.3333 12.2333 14.8083 14.125 16.8249 14.7666C17.7749 13.4166 18.3333 11.775 18.3333 9.99997C18.3333 8.22497 17.7749 6.58331 16.8249 5.23331Z" fill="#323232" fill-opacity="0.5"/>
<path d="M11.6667 9.99999C11.6667 7.26666 13.3083 4.92499 15.6583 3.89166C14.175 2.51666 12.1917 1.66666 10 1.66666C7.80834 1.66666 5.82501 2.51666 4.34167 3.89166C6.69167 4.92499 8.33334 7.26666 8.33334 9.99999C8.33334 12.7333 6.69167 15.075 4.34167 16.1083C5.82501 17.4833 7.80834 18.3333 10 18.3333C12.1917 18.3333 14.175 17.4833 15.6583 16.1083C13.3083 15.075 11.6667 12.7333 11.6667 9.99999Z" fill="#323232" fill-opacity="0.5"/>
</g>
<defs>
<clipPath id="clip0_521_1931">
<rect width="20" height="20" fill="white"/>
</clipPath>
</defs>
</svg>
